HIERARCHY
ROOT hip
{
  OFFSET 0 0 0
  CHANNELS 6 Xposition Yposition Zposition Zrotation Yrotation Xrotation
  JOINT abdomen
  {
    OFFSET 0 20.6881 -0.73152
    CHANNELS 3 Zrotation Xrotation Yrotation
    JOINT chest
    {
      OFFSET 0 11.7043 -0.48768
      CHANNELS 3 Zrotation Xrotation Yrotation
      JOINT neck
      {
        OFFSET 0 22.1894 -2.19456
        CHANNELS 3 Zrotation Xrotation Yrotation
        JOINT head
        {
          OFFSET -0.24384 7.07133 1.2192
          CHANNELS 3 Zrotation Xrotation Yrotation
          JOINT leftEye
          {
            OFFSET 4.14528 8.04674 8.04672
            CHANNELS 3 Zrotation Xrotation Yrotation
            End Site
            {
              OFFSET 1 0 0
            }
          }
          JOINT rightEye
          {
            OFFSET -3.6576 8.04674 8.04672
            CHANNELS 3 Zrotation Xrotation Yrotation
            End Site
            {
              OFFSET 1 0 0
            }
          }
        }
      }
      JOINT rCollar
      {
        OFFSET -2.68224 19.2634 -4.8768
        CHANNELS 3 Zrotation Xrotation Yrotation
        JOINT rShldr
        {
          OFFSET -8.77824 -1.95073 1.46304
          CHANNELS 3 Zrotation Xrotation Yrotation
          JOINT rForeArm
          {
            OFFSET -28.1742 -1.7115 0.48768
            CHANNELS 3 Zrotation Xrotation Yrotation
            JOINT rHand
            {
              OFFSET -22.5879 0.773209 7.07136
              CHANNELS 3 Zrotation Xrotation Yrotation
              JOINT rThumb1
              {
                OFFSET -1.2192 -0.487915 3.41376
                CHANNELS 3 Zrotation Xrotation Yrotation
                JOINT rThumb2
                {
                  OFFSET -3.37035 -0.52449 3.41376
                  CHANNELS 3 Zrotation Xrotation Yrotation
                  End Site
                  {
                    OFFSET -1.78271 -1.18214 1.43049
                  }
                }
              }
              JOINT rIndex1
              {
                OFFSET -7.75947 0.938293 5.60832
                CHANNELS 3 Zrotation Xrotation Yrotation
                JOINT rIndex2
                {
                  OFFSET -2.54057 -0.884171 1.56538
                  CHANNELS 3 Zrotation Xrotation Yrotation
                  End Site
                  {
                    OFFSET -1.62519 -0.234802 1.16502
                  }
                }
              }
              JOINT rMid1
              {
                OFFSET -8.24714 1.18213 3.41376
                CHANNELS 3 Zrotation Xrotation Yrotation
                JOINT rMid2
                {
                  OFFSET -3.10165 -0.590103 1.0647
                  CHANNELS 3 Zrotation Xrotation Yrotation
                  End Site
                  {
                    OFFSET -2.48547 -0.328903 0.83742
                  }
                }
              }
              JOINT rRing1
              {
                OFFSET -8.82822 0.546677 1.51678
                CHANNELS 3 Zrotation Xrotation Yrotation
                JOINT rRing2
                {
                  OFFSET -2.60934 -0.819778 -0.0198488
                  CHANNELS 3 Zrotation Xrotation Yrotation
                  End Site
                  {
                    OFFSET -2.33842 -0.294052 0.168128
                  }
                }
              }
              JOINT rPinky1
              {
                OFFSET -8.27202 -0.0477905 -0.4584
                CHANNELS 3 Zrotation Xrotation Yrotation
                JOINT rPinky2
                {
                  OFFSET -1.82734 -0.647385 -0.700984
                  CHANNELS 3 Zrotation Xrotation Yrotation
                  End Site
                  {
                    OFFSET -1.69225 -0.51767 -0.607171
                  }
                }
              }
            }
          }
        }
      }
      JOINT lCollar
      {
        OFFSET 2.68224 19.2634 -4.8768
        CHANNELS 3 Zrotation Xrotation Yrotation
        JOINT lShldr
        {
          OFFSET 8.77824 -1.95073 1.46304
          CHANNELS 3 Zrotation Xrotation Yrotation
          JOINT lForeArm
          {
            OFFSET 28.1742 -1.7115 0.48768
            CHANNELS 3 Zrotation Xrotation Yrotation
            JOINT lHand
            {
              OFFSET 22.5879 0.773209 7.07136
              CHANNELS 3 Zrotation Xrotation Yrotation
              JOINT lThumb1
              {
                OFFSET 1.2192 -0.487915 3.41376
                CHANNELS 3 Zrotation Xrotation Yrotation
                JOINT lThumb2
                {
                  OFFSET 3.37035 -0.52449 3.41376
                  CHANNELS 3 Zrotation Xrotation Yrotation
                  End Site
                  {
                    OFFSET 1.78271 -1.18214 1.43049
                  }
                }
              }
              JOINT lIndex1
              {
                OFFSET 7.75947 0.938293 5.60832
                CHANNELS 3 Zrotation Xrotation Yrotation
                JOINT lIndex2
                {
                  OFFSET 2.54057 -0.884171 1.56538
                  CHANNELS 3 Zrotation Xrotation Yrotation
                  End Site
                  {
                    OFFSET 1.62519 -0.234802 1.16502
                  }
                }
              }
              JOINT lMid1
              {
                OFFSET 8.24714 1.18213 3.41376
                CHANNELS 3 Zrotation Xrotation Yrotation
                JOINT lMid2
                {
                  OFFSET 3.10165 -0.590103 1.0647
                  CHANNELS 3 Zrotation Xrotation Yrotation
                  End Site
                  {
                    OFFSET 2.48547 -0.328903 0.83742
                  }
                }
              }
              JOINT lRing1
              {
                OFFSET 8.82822 0.546677 1.51678
                CHANNELS 3 Zrotation Xrotation Yrotation
                JOINT lRing2
                {
                  OFFSET 2.60934 -0.819778 -0.0198488
                  CHANNELS 3 Zrotation Xrotation Yrotation
                  End Site
                  {
                    OFFSET 2.33842 -0.294052 0.168128
                  }
                }
              }
              JOINT lPinky1
              {
                OFFSET 8.27202 -0.0477905 -0.4584
                CHANNELS 3 Zrotation Xrotation Yrotation
                JOINT lPinky2
                {
                  OFFSET 1.82734 -0.647385 -0.700984
                  CHANNELS 3 Zrotation Xrotation Yrotation
                  End Site
                  {
                    OFFSET 1.69225 -0.51767 -0.607171
                  }
                }
              }
            }
          }
        }
      }
    }
  }
  JOINT rButtock
  {
    OFFSET -8.77824 4.35084 1.2192
    CHANNELS 3 Zrotation Xrotation Yrotation
    JOINT rThigh
    {
      OFFSET 0 -1.70687 -2.19456
      CHANNELS 3 Zrotation Xrotation Yrotation
      JOINT rShin
      {
        OFFSET 0 -36.8199 0.73152
        CHANNELS 3 Zrotation Xrotation Yrotation
        JOINT rFoot
        {
          OFFSET 0.73152 -45.1104 -5.12064
          CHANNELS 3 Zrotation Xrotation Yrotation
          End Site
          {
            OFFSET -1.1221 -3.69964 12.103
          }
        }
      }
    }
  }
  JOINT lButtock
  {
    OFFSET 8.77824 4.35084 1.2192
    CHANNELS 3 Zrotation Xrotation Yrotation
    JOINT lThigh
    {
      OFFSET 0 -1.70687 -2.19456
      CHANNELS 3 Zrotation Xrotation Yrotation
      JOINT lShin
      {
        OFFSET 0 -36.8199 0.73152
        CHANNELS 3 Zrotation Xrotation Yrotation
        JOINT lFoot
        {
          OFFSET -0.73152 -45.1104 -5.12064
          CHANNELS 3 Zrotation Xrotation Yrotation
          End Site
          {
            OFFSET 1.1221 -3.69964 12.103
          }
        }
      }
    }
  }
}
MOTION
Frames:	4
Frame Time:	0.00833333
14.7781 67.3113 -23.927200000000003 177.916932 -19.923653 -174.015877 -13.253713 -0.707724 -0.728959 -6.882814 -11.171166 10.652746 -12.637301 1.745485 -56.257628 17.456204 29.430828 58.60188 0.00015 0.0 0.001328 0.00015 0.0 0.001328 -28.379941 -85.199606 -49.674606 16.841838 -2.879334 -25.688632 -115.908656 -60.337176 61.993968 -148.684437 11.959303 146.213207 -94.791491 37.828533 54.283899 73.443647 -47.656461 33.210074 -151.353034 -17.158296 121.133472 0.775107 19.567959 -5.422601 -36.037277 51.722544 29.83314 -42.044724 58.503625 36.270502 -145.119866 0.267908 -179.212135 -152.391362 -25.063582 -175.330059 4.591319 13.360612 4.157159 -76.17552 -54.833607 -75.590638 8.482093 32.161183 -9.928726 -10.525639 0.864064 -12.009108 -86.052944 19.119619 -88.52897 157.629056 58.880461 -133.870288 -99.080887 -51.214509 -44.800723 151.221022 1.603042 -111.858335 1.161743 1.860949 -0.668866 -7.78561 5.085203 -0.354305 39.288839 53.366329 -32.877397 -84.468495 -78.137801 -55.649899 72.964129 -72.143141 89.990119 68.809932 -82.378314 94.800293 157.328351 57.246958 150.510889 138.258132 -13.109336 134.048382 0.001119 0.000864 -0.001439 2.478621 -31.780321 4.698644 44.056829 39.30734 18.109769 -174.489416 -28.252242 92.523546 -179.99484 75.750078 -0.004246 -145.855242 41.644795 -23.733458 -108.640955 67.247996 -170.711546 -151.213251 -3.776197 75.760161
15.1873 67.48769999999999 -24.1205 177.944019 -20.001109 -173.972016 -13.210132 -0.780206 -0.743477 -6.889091 -11.091357 10.459029 -13.241151 6.26289 -81.867787 6.083861 33.587317 88.438651 -5e-06 -0.0 0.002726 -5e-06 -0.0 0.002726 -13.743672 42.431526 15.569316 23.747812 7.131812 37.443157 -179.273122 -71.623559 -53.529722 -34.40092 -70.706085 -32.533586 -4.167146 4.05705 0.784753 38.968761 -57.257427 -14.796496 -130.886885 15.214622 109.736927 106.147472 -69.796283 54.965593 -0.059701 0.167512 0.032347 168.04301 -64.094275 133.242716 -0.022925 -1.726084 -0.542201 5.655432 36.637765 6.322364 -29.627366 -40.969858 -28.615997 -93.924044 -51.55759 -94.028258 143.620114 38.233268 -148.080365 -4.81613 0.141458 -9.362232 -161.296631 -67.427086 110.059047 11.971805 37.753688 -3.051495 69.522485 38.077564 -36.391915 149.448286 -35.164279 -85.36727 -18.525224 -33.243125 5.980963 174.103115 -35.379613 -107.776839 -173.121749 -66.297659 -137.611811 169.0317 -21.682652 -144.024615 145.118853 0.184819 179.187921 152.386077 -25.064522 175.334105 -0.210378 0.551895 -0.195274 -35.496553 80.483479 -0.858007 -179.920946 75.749939 -0.060931 -176.470515 44.183712 -5.057346 46.351257 51.417672 116.488878 -153.809168 1.460726 -169.493228 179.857061 75.748459 0.110168 -146.120503 42.382104 -44.888481 -107.944837 40.213206 -100.912015 61.671175 35.292877 -168.216605
15.607899999999999 67.6658 -24.3257 177.994066 -20.02623 -173.940115 -10.816989 -2.684405 -76.227187 6.811075 -11.078481 87.482832 -10.476957 12.54536 -120.89558 -11.668159 29.825508 133.918002 -0.000395 0.0 -0.00291 -0.000652 -0.0 0.001597 -155.717114 -4.925236 162.135815 -108.09 -85.999395 -89.710223 -177.024769 -25.541108 -52.201383 -34.395754 -70.661417 -32.459612 83.253932 -50.257607 33.61632 -138.097834 16.037511 102.771933 -0.327568 0.530062 0.185224 -60.916044 48.078025 46.656047 -160.825035 -7.141839 143.31697 3.087528 0.392513 0.412411 -145.119044 0.310835 -179.224236 -153.64849 -16.732908 -176.836221 -146.206024 15.405349 -142.731892 84.428636 84.746809 -45.960936 0.048996 0.292339 -0.065531 -151.689008 -78.984896 -133.205121 -102.290163 -23.60288 48.075083 170.01582 41.639457 -142.471088 68.481686 37.953712 -35.660314 -2.773349 -12.499155 -23.015971 159.786338 -32.611317 -122.690111 -2.143621 19.876915 5.227273 161.517767 -9.30454 -143.625036 -18.259304 -42.034353 -0.338167 70.379465 -72.129986 87.280097 -14.729692 0.86385 4.413782 143.93735 8.264498 140.721414 147.259458 11.060778 141.551236 179.979114 75.750183 0.01429 -175.838867 44.456836 -5.930518 34.546929 55.046924 -162.771681 -26.620569 86.43031 135.808485 -179.994687 75.750617 -0.003636 -146.663347 42.207193 -108.083661 -105.943145 -24.309002 -94.712424 -26.440542 12.75292 167.926446
16.0523 67.8463 -24.519099999999998 178.091003 -20.10875 -173.904886 -10.622398 -3.065433 -83.391923 7.777726 -10.144527 94.523207 0.896575 15.187707 169.031636 -21.236213 5.647415 -159.386536 0.00243 0.0 0.001776 0.002684 -0.0 -0.002736 -6.043695 25.598896 7.235295 46.399588 -18.700331 28.65786 159.112012 75.585246 39.302839 -92.427183 45.795275 83.549346 -164.69779 -2.372108 89.585769 -162.571305 -4.826785 82.728698 1.087691 -1.783658 -0.601603 -6.622978 22.963991 6.699563 -160.09908 -4.900615 142.97032 174.590761 -56.639104 137.740991 -145.118901 0.268166 -179.211619 -157.075648 27.68382 177.628475 12.989659 44.344068 10.761749 0.764329 -2.496211 -1.119032 14.147185 43.061848 -15.995607 -17.589959 -29.244984 -12.684461 4.420536 4.988185 -92.671579 6.065979 22.239702 -0.833698 121.365272 30.330263 -71.958128 58.789054 -7.149244 -39.352256 150.885679 -16.291708 -120.97798 -4.483695 13.046144 7.359897 -23.900959 -61.334343 -1.397682 -2.992269 0.161548 -0.108475 72.757959 -72.143542 89.772071 -7.123319 62.576483 -8.82836 24.990737 -37.659289 24.059516 84.652914 -53.600504 84.886573 179.999225 75.748881 0.0008 -176.819164 44.06568 66.495383 64.435986 -7.772385 104.42887 171.579365 -1.694436 -149.928752 -0.000886 0.000761 -0.000886 24.165936 -24.595526 11.034939 -108.570571 64.659091 -153.946853 -14.957042 -21.37549 -120.995185
